<svg width="1440" height="386" viewBox="0 0 1440 386" fill="none" xmlns="http://www.w3.org/2000/svg">
<rect y="158.295" width="483.599" height="227.705" fill="#E59937"/>
<path d="M603 13.4825L482.6 159.294H447.629L584.515 0L603 13.4825Z" fill="#E59937"/>
<rect x="758.061" y="108.721" width="245.219" height="277.28" fill="#4D95D2"/>
<path d="M1039 51.3245L1003.35 108.908H993L1033.53 46L1039 51.3245Z" fill="#4D95D2"/>
<path d="M723 51.3245L757.871 108.908H768L728.354 46L723 51.3245Z" fill="#4D95D2"/>
<rect x="440" y="216.757" width="360.026" height="169.243" fill="#FFEBD0"/>
<path d="M851 153.828L799.08 216.855H784L843.029 148L851 153.828Z" fill="#FFEBD0"/>
<path d="M388 153.828L439.92 216.855H455L395.971 148L388 153.828Z" fill="#FFEBD0"/>
<rect x="993.746" y="250.89" width="482.884" height="135.11" fill="#E59937"/>
<path d="M924 200.653L993.637 250.969H1013.86L934.691 196L924 200.653Z" fill="#E59937"/>
</svg>
