<svg width="729" height="530" viewBox="0 0 729 530" fill="none" xmlns="http://www.w3.org/2000/svg">
<rect x="0.203125" y="298.47" width="337.751" height="231.024" fill="#FFEBD0"/>
<path d="M421.345 151.547L337.256 299.483H312.832L408.435 137.868L421.345 151.547Z" fill="#FFEBD0"/>
<rect x="520.965" y="70.0635" width="181.286" height="459.936" fill="#E59937"/>
<path d="M728.715 8.30663L702.415 98.1413H694.775L724.678 0L728.715 8.30663Z" fill="#E59937"/>
<path d="M463.065 24.1259L533.144 87.3746L539.505 83.5357L461.972 15.0264L463.065 24.1259Z" fill="#E59937"/>
<rect x="310.713" y="358.151" width="251.238" height="171.848" fill="#4D95D2"/>
<path d="M597.524 294.254L561.293 358.252H550.77L591.962 288.337L597.524 294.254Z" fill="#4D95D2"/>
<path d="M274.427 294.254L310.658 358.252H321.182L279.989 288.337L274.427 294.254Z" fill="#4D95D2"/>
</svg>
