<svg width="257" height="257" viewBox="0 0 257 257" fill="none" xmlns="http://www.w3.org/2000/svg">
<path fill-rule="evenodd" clip-rule="evenodd" d="M161.183 252.383C92.8396 270.563 22.6994 229.897 4.51995 161.554C-13.6595 93.2112 27.0061 23.0709 95.349 4.89152C115.231 -0.397211 135.266 -0.705682 154.128 3.19871C154.853 3.34872 155.16 4.21118 154.718 4.80467C153.262 6.75963 151.924 8.85588 150.727 11.0851C139.4 32.1828 144.961 57.202 163.149 66.9671C172.265 71.8618 182.824 71.9949 192.514 68.2531C193.205 67.9864 193.96 68.5107 193.95 69.2511C193.745 83.4523 200.247 96.5179 212.237 102.955C224.546 109.564 239.484 107.492 251.366 98.9215C251.952 98.4986 252.792 98.7978 252.957 99.5016C268.682 166.632 228.266 234.539 161.183 252.383Z" fill="#E59937"/>
</svg>
