<svg width="135" height="138" viewBox="0 0 135 138" fill="none" xmlns="http://www.w3.org/2000/svg">
<path fill-rule="evenodd" clip-rule="evenodd" d="M54.5813 135.697C17.8089 127.694 -5.51299 91.3958 2.49037 54.6234C10.4937 17.851 46.7917 -5.47094 83.5641 2.53242C93.5662 4.70934 102.573 8.97962 110.225 14.7834C111.275 15.5798 111.065 17.2026 109.929 17.8705C109.371 18.1985 108.82 18.5497 108.277 18.9242C97.7866 26.1591 94.3388 39.355 100.576 48.3982C103.321 52.3792 107.486 54.8917 112.184 55.8399C113.476 56.1008 114.254 57.5604 113.736 58.7726C111.07 65.0074 111.323 71.9344 115.068 77.3642C118.94 82.9787 125.635 85.6725 132.666 85.1765C133.95 85.0859 135.04 86.2398 134.694 87.4797C125.068 121.999 90.0452 143.416 54.5813 135.697Z" fill="#FFEBD0"/>
</svg>
