<svg width="137" height="137" viewBox="0 0 137 137" fill="none" xmlns="http://www.w3.org/2000/svg">
<path fill-rule="evenodd" clip-rule="evenodd" d="M31.2932 11.7146C62.7823 -8.89367 105.016 -0.0730652 125.624 31.416C146.232 62.9051 137.411 105.138 105.922 125.747C97.3574 131.352 87.9975 134.78 78.4941 136.167C77.19 136.358 76.1805 135.07 76.5008 133.791C76.6581 133.164 76.7942 132.524 76.9079 131.875C79.1041 119.322 72.1124 107.612 61.2915 105.719C56.5279 104.885 51.8163 106.093 47.8467 108.777C46.7546 109.516 45.1683 109.048 44.6674 107.828C42.0912 101.555 36.9744 96.879 30.477 95.7422C23.7586 94.5667 17.1436 97.4519 12.5678 102.813C11.7322 103.792 10.145 103.76 9.50334 102.644C-8.36003 71.5779 0.924636 31.5896 31.2932 11.7146Z" fill="#973054"/>
</svg>
