<svg width="399" height="92" viewBox="0 0 399 92" fill="none" xmlns="http://www.w3.org/2000/svg">
<path d="M231.116 87.3809H215.247V23.9671H191.332V8.09989H254.975V23.9671H231.116V87.3809Z" fill="#FFEBD0"/>
<path d="M326.164 55.7017C326.164 60.0877 325.331 64.2158 323.667 68.0859C322.002 71.9191 319.727 75.2731 316.842 78.148C313.957 80.9861 310.572 83.2344 306.688 84.893C302.841 86.5516 298.716 87.3809 294.315 87.3809C289.913 87.3809 285.77 86.5516 281.886 84.893C278.039 83.2344 274.672 80.9861 271.787 78.148C268.939 75.2731 266.682 71.9191 265.018 68.0859C263.353 64.2158 262.521 60.0877 262.521 55.7017V8.09989H278.39V55.7017C278.39 57.8763 278.797 59.9219 279.611 61.8385C280.461 63.7551 281.608 65.4321 283.051 66.8696C284.493 68.307 286.177 69.4496 288.1 70.2973C290.061 71.1082 292.132 71.5136 294.315 71.5136C296.497 71.5136 298.55 71.1082 300.474 70.2973C302.434 69.4496 304.136 68.307 305.578 66.8696C307.021 65.4321 308.149 63.7551 308.963 61.8385C309.814 59.9219 310.239 57.8763 310.239 55.7017V8.09989H326.164V55.7017Z" fill="#FFEBD0"/>
<path d="M335.319 31.8731C335.319 28.5928 335.948 25.5152 337.205 22.6403C338.463 19.7654 340.165 17.259 342.31 15.1213C344.493 12.9467 347.026 11.2328 349.912 9.97963C352.797 8.72647 355.886 8.09989 359.178 8.09989H395.688V23.9671H359.178C358.068 23.9671 357.033 24.1699 356.071 24.5753C355.109 24.9807 354.258 25.552 353.518 26.2892C352.816 26.9895 352.261 27.8188 351.854 28.7771C351.447 29.7354 351.243 30.7674 351.243 31.8731C351.243 32.9789 351.447 34.0293 351.854 35.0245C352.261 35.9828 352.816 36.8305 353.518 37.5677C354.258 38.268 355.109 38.8208 356.071 39.2263C357.033 39.6317 358.068 39.8344 359.178 39.8344H375.103C378.395 39.8344 381.483 40.461 384.369 41.7141C387.291 42.9305 389.825 44.6259 391.97 46.8005C394.153 48.9383 395.854 51.463 397.075 54.3748C398.333 57.2497 398.962 60.3273 398.962 63.6077C398.962 66.888 398.333 69.9656 397.075 72.8405C395.854 75.7154 394.153 78.2402 391.97 80.4148C389.825 82.5525 387.291 84.248 384.369 85.5012C381.483 86.7543 378.395 87.3809 375.103 87.3809H339.758V71.5136H375.103C376.212 71.5136 377.248 71.3109 378.21 70.9055C379.172 70.5 380.004 69.9472 380.707 69.2469C381.446 68.5097 382.02 67.662 382.427 66.7037C382.834 65.7454 383.037 64.7134 383.037 63.6077C383.037 62.5019 382.834 61.4699 382.427 60.5116C382.02 59.5533 381.446 58.724 380.707 58.0237C380.004 57.2865 379.172 56.7153 378.21 56.3098C377.248 55.9044 376.212 55.7017 375.103 55.7017H359.178C355.886 55.7017 352.797 55.0751 349.912 53.8219C347.026 52.5688 344.493 50.8733 342.31 48.7356C340.165 46.5609 338.463 44.0362 337.205 41.1613C335.948 38.2495 335.319 35.1535 335.319 31.8731Z" fill="#FFEBD0"/>
<path d="M79.5118 87.3809H63.6427V30.7674C63.6427 29.6617 63.4208 28.6297 62.9769 27.6714C62.57 26.713 61.9966 25.8838 61.2568 25.1835C60.554 24.4463 59.7217 23.875 58.7599 23.4696C57.7982 23.0641 56.7624 22.8614 55.6527 22.8614C54.543 22.8614 53.5072 23.0641 52.5455 23.4696C51.5837 23.875 50.7329 24.4463 49.9931 25.1835C49.2903 25.8838 48.7354 26.713 48.3285 27.6714C47.9216 28.6297 47.7182 29.6617 47.7182 30.7674V87.3809H31.7936V30.7674C31.7936 29.6617 31.5902 28.6297 31.1833 27.6714C30.7764 26.713 30.203 25.8838 29.4632 25.1835C28.7604 24.4463 27.9281 23.875 26.9663 23.4696C26.0046 23.0641 24.9688 22.8614 23.8591 22.8614C22.7494 22.8614 21.7136 23.0641 20.7519 23.4696C19.7901 23.875 18.9393 24.4463 18.1995 25.1835C17.4967 25.8838 16.9418 26.713 16.5349 27.6714C16.128 28.6297 15.9246 29.6617 15.9246 30.7674V87.3809H0V30.7674C0 27.4871 0.610349 24.4094 1.83105 21.5345C3.08873 18.6228 4.79031 16.098 6.93578 13.9603C9.11824 11.7857 11.6521 10.0902 14.5374 8.8739C17.4597 7.62074 20.5669 6.99415 23.8591 6.99415C26.8183 6.99415 29.6666 7.52859 32.404 8.59747C35.1413 9.62948 37.6012 11.1406 39.7836 13.131C41.9661 11.1406 44.4075 9.62948 47.1078 8.59747C49.8451 7.52859 52.6934 6.99415 55.6527 6.99415C58.9449 6.99415 62.0336 7.62074 64.9189 8.8739C67.8412 10.0902 70.375 11.7857 72.5205 13.9603C74.703 16.098 76.4046 18.6228 77.6253 21.5345C78.8829 24.4094 79.5118 27.4871 79.5118 30.7674V87.3809Z" fill="#FFEBD0"/>
<path d="M103.495 78.3629C85.5574 60.3086 85.7045 31.1834 103.824 13.3099C121.943 -4.56365 151.174 -4.41712 169.112 13.6371C174.019 18.5762 177.573 24.3438 179.775 30.4829C180.059 31.272 179.382 32.0639 178.542 32.0213C178.067 31.9973 177.587 31.9915 177.102 32.0049C168.472 32.2427 161.642 38.445 161.848 45.858C161.94 49.1589 163.411 52.1433 165.777 54.4175C166.382 54.9996 166.291 56.0464 165.589 56.5082C161.719 59.0539 159.266 63.0974 159.391 67.5846C159.519 72.2219 162.37 76.2344 166.6 78.531C167.322 78.9226 167.504 79.9156 166.889 80.4584C148.68 96.5328 120.821 95.8005 103.495 78.3629Z" fill="#FFEBD0"/>
<path d="M102.7 78.3629C84.3026 60.3086 84.4534 31.1834 103.037 13.3099C121.62 -4.56365 151.599 -4.41712 169.996 13.6371C175.029 18.5762 178.674 24.3438 180.933 30.4829C181.223 31.272 180.529 32.0639 179.668 32.0213C179.181 31.9973 178.688 31.9915 178.191 32.0049C169.34 32.2427 162.336 38.445 162.547 45.858C162.641 49.1589 164.149 52.1433 166.576 54.4175C167.197 54.9996 167.103 56.0464 166.383 56.5082C162.414 59.0539 159.898 63.0974 160.026 67.5846C160.158 72.2219 163.082 76.2344 167.42 78.531C168.16 78.9226 168.347 79.9156 167.716 80.4584C149.042 96.5328 120.469 95.8005 102.7 78.3629Z" fill="#E59937"/>
</svg>
