<svg width="111" height="27" viewBox="0 0 111 27" fill="none" xmlns="http://www.w3.org/2000/svg">
<path d="M26.76 13.5C26.76 17.2059 25.4483 20.3824 22.8247 23.0294C20.2012 25.6765 17.053 27 13.38 27C9.70707 27 6.55883 25.6765 3.9353 23.0294C1.31177 20.3824 8.00139e-09 17.2059 0 13.5C-8.00139e-09 9.79412 1.31177 6.61765 3.9353 3.97059C6.55883 1.32353 9.70707 1.93233e-07 13.38 1.8516e-07C17.053 1.77086e-07 20.2012 1.32353 22.8247 3.97059C25.4483 6.61765 26.76 9.79412 26.76 13.5Z" fill="#973054"/>
<path d="M68.88 13.5C68.88 17.2059 67.5683 20.3824 64.9447 23.0294C62.3212 25.6765 59.1729 27 55.5 27C51.8271 27 48.6788 25.6765 46.0553 23.0294C43.4318 20.3824 42.12 17.2059 42.12 13.5C42.12 9.79412 43.4318 6.61765 46.0553 3.97059C48.6788 1.32353 51.8271 1.00653e-07 55.5 9.25796e-08C59.1729 8.45065e-08 62.3212 1.32353 64.9447 3.97059C67.5683 6.61765 68.88 9.79412 68.88 13.5Z" fill="#973054"/>
<path d="M111 13.5C111 17.2059 109.688 20.3824 107.065 23.0294C104.441 25.6765 101.293 27 97.62 27C93.947 27 90.7988 25.6765 88.1753 23.0294C85.5517 20.3824 84.24 17.2059 84.24 13.5C84.24 9.79412 85.5517 6.61765 88.1753 3.97059C90.7988 1.32353 93.947 8.07314e-09 97.62 0C101.293 -8.07314e-09 104.441 1.32353 107.065 3.97059C109.688 6.61765 111 9.79412 111 13.5Z" fill="#973054"/>
</svg>
